<svg width="240" height="44" viewBox="0 0 240 44" fill="none" xmlns="http://www.w3.org/2000/svg">
<path d="M91.0363 30.0698C91.461 30.0698 91.8528 30.1033 92.2327 30.0513C92.3619 30.0335 92.5587 29.8007 92.5596 29.6653C92.5791 26.889 92.5801 24.1128 92.5577 21.3369C92.5567 21.2015 92.3213 20.9765 92.17 20.9525C91.8116 20.8953 91.4382 20.934 91.0363 20.934V30.0698ZM80.3638 36.8054V14.1792C80.6105 14.1649 80.83 14.1412 81.0495 14.1412C86.7559 14.1396 92.4622 14.1455 98.1683 14.1357C99.3391 14.1338 100.442 14.3299 101.404 15.038C102.59 15.911 103.201 17.1256 103.212 18.5639C103.25 23.17 103.265 27.777 103.211 32.3828C103.182 34.9288 101.289 36.8168 98.7771 36.833C92.7389 36.8726 86.7007 36.8489 80.6625 36.8489C80.5819 36.8489 80.5014 36.8262 80.3638 36.8054Z" fill="white"/>
<path d="M138.401 20.9324C138.102 20.9324 137.835 20.961 137.576 20.9266C137.002 20.85 136.839 21.0743 136.846 21.6474C136.875 24.2353 136.882 26.8242 136.842 29.4121C136.832 30.0751 137.146 30.0975 137.634 30.0803C138.076 30.0651 138.467 30.1608 138.455 29.4479C138.413 26.8187 138.439 24.1885 138.438 21.5587C138.437 21.3769 138.417 21.1954 138.401 20.9324ZM137.695 14.1514C139.999 14.1514 142.304 14.116 144.607 14.1621C146.667 14.2033 148.237 15.3627 148.832 17.2435C149.01 17.8078 149.093 18.4253 149.095 19.0188C149.117 23.3571 149.12 27.6956 149.103 32.0339C149.091 34.9828 147.209 36.8412 144.246 36.8487C139.845 36.8601 135.444 36.8607 131.044 36.8484C128.079 36.8403 126.227 34.9903 126.216 32.015C126.2 27.6972 126.201 23.3798 126.215 19.062C126.225 15.977 128.054 14.1686 131.156 14.142C132.256 14.1326 133.356 14.14 134.457 14.1397C135.536 14.1397 136.615 14.1397 137.695 14.1397C137.695 14.1436 137.695 14.1475 137.695 14.1514Z" fill="white"/>
<path d="M161.184 29.6755H162.764V14.1768H173.371C173.382 14.4017 173.403 14.6209 173.404 14.8397C173.405 20.5049 173.41 26.1704 173.403 31.8355C173.399 35.0488 171.592 36.8484 168.381 36.851C163.982 36.8549 159.583 36.8624 155.183 36.8448C153.03 36.8364 151.4 35.6897 150.787 33.739C150.604 33.1553 150.524 32.5163 150.522 31.9021C150.502 26.1954 150.517 20.4886 150.498 14.7819C150.496 14.2466 150.673 14.1268 151.173 14.13C154.286 14.1498 157.399 14.1544 160.511 14.1268C161.078 14.1219 161.197 14.305 161.195 14.8375C161.175 19.5273 161.184 24.2175 161.184 28.9073V29.6755Z" fill="white"/>
<path d="M56.1975 23.0037C56.3936 23.0813 56.5858 23.1716 56.7865 23.2345C59.8721 24.2034 62.9574 25.1735 66.0473 26.129C66.4564 26.2556 66.6483 26.429 66.6389 26.9046C66.6054 28.6059 66.6369 30.3084 66.6226 32.0103C66.5973 35.0187 64.7558 36.8463 61.7406 36.8499C56.3647 36.857 50.9892 36.8521 45.6133 36.8521H45.0052V28.202H55.3586C55.3696 28.1328 55.381 28.064 55.392 27.9948C55.2167 27.9202 55.0466 27.8296 54.8657 27.7731C51.7794 26.8049 48.6954 25.8299 45.6013 24.8874C45.0977 24.7342 44.9286 24.5085 44.9403 23.9793C44.9769 22.3404 44.9471 20.7002 44.9552 19.0606C44.9705 16.0415 46.8289 14.1561 49.8548 14.1458C55.2303 14.1272 60.6062 14.1474 65.9817 14.1289C66.511 14.1269 66.6411 14.2964 66.6366 14.8019C66.6132 17.2509 66.6113 19.7005 66.6376 22.1492C66.6431 22.6784 66.471 22.8099 65.9645 22.8063C62.9552 22.7852 59.9455 22.7949 56.9358 22.7975C56.6995 22.7979 56.4634 22.8216 56.2271 22.8345C56.217 22.891 56.2073 22.9472 56.1975 23.0037Z" fill="white"/>
<path d="M196.51 36.8206V28.1815H206.876C206.887 28.1201 206.899 28.0584 206.91 27.9967C206.736 27.923 206.565 27.8347 206.386 27.7782C203.299 26.8104 200.215 25.8351 197.121 24.8926C196.617 24.739 196.446 24.5114 196.457 23.9819C196.492 22.3014 196.453 20.6196 196.475 18.9385C196.513 16.0376 198.341 14.1671 201.233 14.1509C206.692 14.1204 212.151 14.1405 217.61 14.1415C217.752 14.1418 217.894 14.1636 218.086 14.1795V22.7952H207.75L207.71 22.9946C207.879 23.0686 208.042 23.1592 208.217 23.214C211.302 24.1842 214.386 25.1598 217.479 26.1072C217.968 26.2575 218.165 26.4643 218.151 27.0068C218.11 28.6662 218.145 30.3275 218.134 31.9879C218.112 34.9947 216.265 36.8453 213.268 36.8498C207.892 36.8576 202.517 36.8524 197.141 36.8508C196.939 36.8508 196.737 36.832 196.51 36.8206Z" fill="white"/>
<path d="M104.783 36.8015V14.1792H124.868V21.056H115.44V22.6778H124.618V28.2738C124.365 28.2848 124.123 28.3049 123.88 28.3052C121.286 28.3075 118.692 28.3195 116.098 28.2962C115.575 28.2916 115.356 28.403 115.383 28.9783C115.435 30.0841 115.308 29.9322 116.367 29.9348C118.94 29.9413 121.513 29.937 124.086 29.937H124.863V36.8015H104.783Z" fill="white"/>
<path d="M174.942 36.7954V14.1816H195.027C195.046 14.3705 195.075 14.5299 195.075 14.6897C195.078 16.6201 195.063 18.551 195.087 20.4811C195.093 20.9509 194.943 21.0853 194.483 21.0821C191.785 21.0645 189.086 21.0736 186.388 21.074C186.143 21.074 185.898 21.074 185.611 21.074V22.6856H194.786V28.3063H194.024C191.492 28.3063 188.959 28.306 186.427 28.3066C185.566 28.3066 185.566 28.3076 185.569 29.1975C185.569 29.4186 185.569 29.6397 185.569 29.9235H195.026V36.7954H174.942Z" fill="white"/>
<path d="M219.257 22.9461V14.1933H240.003V22.9214H234.964V36.801H224.335V36.0822C224.335 31.9527 224.322 27.8236 224.348 23.6941C224.351 23.0886 224.171 22.9127 223.577 22.9334C222.375 22.976 221.171 22.9461 219.967 22.9461H219.257Z" fill="white"/>
<path d="M136.896 43.0737V37.2703C140.975 37.8917 145.001 38.5047 149.064 39.1235V43.0737H136.896Z" fill="white"/>
<path d="M31.9445 28.35C31.9445 30.2399 31.1871 31.9574 29.9618 33.2129C29.5624 33.6229 29.1167 33.9814 28.6297 34.282C27.5657 34.9414 26.3131 35.3216 24.9729 35.3216H12.3592C11.0355 35.3216 9.79949 34.9495 8.74367 34.3096C6.73331 33.0843 5.38789 30.8717 5.38789 28.35V25.5332C5.38789 22.7267 7.05604 20.3037 9.45209 19.1989C10.3381 18.7911 11.3228 18.5615 12.3592 18.5615H24.9729C26.0232 18.5615 27.016 18.7966 27.9105 19.2125C28.6735 19.568 29.3598 20.0576 29.9426 20.6511C31.1816 21.9092 31.9445 23.6348 31.9445 25.5332V28.35ZM37.3324 25.5332C37.3324 22.4836 36.1428 19.7076 34.2065 17.6398C32.0948 15.3863 29.0975 13.9779 25.7745 13.9779H11.5579C7.17097 13.9779 3.34766 16.4311 1.38926 20.0411C0.782128 21.1625 0.355513 22.3959 0.147725 23.7004C0.0711031 24.1657 0.0272713 24.6387 0.0107132 25.1228C0.00551844 25.2595 0 25.3962 0 25.5332C0 27.1328 0.325318 28.6565 0.916216 30.0402C2.57073 33.9294 6.29599 36.73 10.6991 37.0554C10.9836 37.0774 11.268 37.0911 11.5579 37.0911H25.7745C26.0696 37.0911 26.3596 37.0774 26.6469 37.0554C28.1073 36.9463 29.4939 36.5657 30.7549 35.9615C34.6412 34.0989 37.3324 30.125 37.3324 25.5332Z" fill="white"/>
<path d="M12.6907 23.2098C12.6907 22.5374 12.1456 21.9926 11.4735 21.9926C10.8011 21.9926 10.2563 22.5374 10.2563 23.2098V27.8574C10.2563 28.5298 10.8011 29.075 11.4735 29.075C12.1456 29.075 12.6907 28.5298 12.6907 27.8574V23.2098Z" fill="white"/>
<path d="M25.8593 29.0747C26.5317 29.0747 27.0765 28.5296 27.0765 27.8575V23.2096C27.0765 22.5375 26.5317 21.9924 25.8593 21.9924C25.1869 21.9924 24.6421 22.5375 24.6421 23.2096V27.8575C24.6421 28.5296 25.1869 29.0747 25.8593 29.0747Z" fill="white"/>
<path d="M8.62688 10.1159C9.23239 10.9542 9.82589 11.4006 10.3262 11.4006C10.409 11.4006 10.4885 11.3886 10.5668 11.363C11.6502 11.0188 11.7207 8.29615 10.7275 5.16471C10.2616 3.69526 9.63368 2.37288 8.96032 1.43979C8.25416 0.461556 7.56749 0.0196829 7.02042 0.192407C5.937 0.536556 5.86655 3.25923 6.85971 6.39099C7.32561 7.86044 7.95352 9.18282 8.62688 10.1159Z" fill="white"/>
<path d="M25.8083 11.2186C25.8832 11.2426 25.9631 11.2546 26.0456 11.2546C26.5459 11.2546 27.1394 10.8069 27.742 9.96538C28.4124 9.02936 29.0358 7.70406 29.4971 6.23428C29.9585 4.76483 30.2036 3.3207 30.1884 2.16975C30.1718 0.964574 29.8624 0.20712 29.3153 0.0360193C28.7699 -0.135406 28.0832 0.309391 27.3816 1.28924C26.7112 2.22526 26.0878 3.55056 25.6264 5.02034C25.1651 6.48979 24.9203 7.93392 24.9352 9.08487C24.9518 10.29 25.2612 11.0472 25.8083 11.2186Z" fill="white"/>
<path d="M21.1851 30.1798C20.6133 30.6201 20.0091 30.91 19.3799 31.0551C19.0819 31.1233 18.7809 31.1616 18.4718 31.1616C18.2997 31.1616 18.1329 31.148 17.9715 31.1288C16.6014 30.9619 15.6495 30.1743 15.6384 30.1662C15.5401 30.0785 15.4771 29.961 15.466 29.8269C15.4553 29.6957 15.4962 29.5698 15.5839 29.4688C15.7589 29.261 16.0706 29.2334 16.2784 29.4113C16.3277 29.4496 16.9952 29.9993 17.9741 30.1444C18.39 30.2071 18.863 30.1964 19.3718 30.0405C19.7575 29.9201 20.165 29.7175 20.5779 29.3977C20.6818 29.3156 20.813 29.2802 20.9445 29.2964C21.0757 29.313 21.1906 29.3811 21.2727 29.485C21.4393 29.7013 21.3984 30.0129 21.1851 30.1798Z" fill="white"/>
<path d="M78.1998 14.2382H78.1836C76.4664 14.2434 74.7492 14.2443 73.0321 14.2443C72.2889 14.2443 71.5454 14.2443 70.8026 14.2443C70.1393 14.2443 69.4763 14.2443 68.8133 14.2447C68.6172 14.245 68.4214 14.2671 68.2234 14.2787V30.3232H78.7985C78.8102 30.195 78.8274 30.0953 78.8274 29.9953C78.8287 24.8863 78.8232 19.7773 78.8404 14.6687C78.8417 14.2979 78.6385 14.2382 78.1998 14.2382ZM77.0599 16.0173C77.0508 19.4929 77.0511 23.0013 77.0511 26.4068V28.547H69.9997V16.0209L70.8026 16.0206H71.9171L73.0321 16.0209C74.3746 16.0209 75.7171 16.0203 77.0599 16.0173Z" fill="white"/>
<path d="M78.0856 31.8034H78.0701C76.3474 31.805 74.6247 31.8054 72.902 31.8054H70.4761C69.8842 31.8054 69.2917 31.8054 68.6998 31.8054C68.5037 31.8057 68.3079 31.8125 68.1099 31.8161V36.8364H78.685C78.6967 36.7965 78.7139 36.7653 78.7139 36.7338C78.7152 35.1355 78.7097 33.5368 78.7265 31.9381C78.7278 31.8219 78.5249 31.8034 78.0856 31.8034ZM77.2366 33.2845C77.2337 33.98 77.2337 34.6738 77.2337 35.3563H69.59V33.2858L70.4761 33.2855H71.689H72.902C74.3471 33.2855 75.7919 33.2855 77.2366 33.2845Z" fill="white"/>
</svg>
