<svg width="20" height="20" viewBox="0 0 20 20" fill="none" xmlns="http://www.w3.org/2000/svg">
<path d="M19.1666 4.16663H18.3333V4.99996H19.1666V4.16663Z" fill="white"/>
<path d="M19.1666 2.5H18.3333V3.33333H19.1666V2.5Z" fill="white"/>
<path d="M17.4999 4.16667V5H18.3333V5.83333H17.4999V10H16.6666V11.6667H15.8333V13.3333H14.9999V14.1667H14.1666V15H13.3333V15.8333H11.6666V16.6667H9.16658V17.5H3.33325V16.6667H1.66659V15.8333H0.833252V15H2.49992V15.8333H4.99992V15H5.83325V14.1667H4.16659V13.3333H3.33325V12.5H2.49992V11.6667H4.16659V10.8333H2.49992V10H1.66659V8.33333H3.33325V7.5H2.49992V6.66667H1.66659V3.33333H2.49992V4.16667H3.33325V5H4.16659V5.83333H5.83325V6.66667H8.33325V7.5H9.99992V4.16667H10.8333V3.33333H11.6666V2.5H15.8333V3.33333H18.3333V4.16667H17.4999Z" fill="white"/>
</svg>
